<svg width="37" height="54" viewBox="0 0 37 54" fill="none" xmlns="http://www.w3.org/2000/svg">
<path d="M20.9559 2.51279C20.7091 3.35779 20.5166 4.21852 20.3798 5.08988L20.3775 5.10489L20.3755 5.11997C19.6206 11.0544 23.2127 15.5592 25.7889 18.2821L25.7892 18.2824C28.5564 21.2049 31.1323 24.0961 33.1311 27.4409L33.1312 27.441C35.1814 30.871 36.2974 34.828 35.8652 38.7295C35.0795 45.8101 30.7122 50.2464 25.1804 52.0446C19.6054 53.8569 12.8353 52.9838 7.40198 49.3083C3.4968 46.6628 1.44684 42.298 1.08365 37.5659C0.922343 34.9492 1.23563 32.325 2.00886 29.8171L2.00892 29.8171L2.01208 29.8065C2.56023 27.9588 3.42242 26.1405 4.38536 24.3408C4.39649 24.4124 4.40801 24.4837 4.41988 24.5548C4.67318 26.0709 5.10632 27.563 5.50897 28.7538C5.8441 29.7644 6.35047 30.9387 7.11883 31.9135C7.89709 32.9009 8.99303 33.7398 10.4791 33.9108C12.0802 34.0953 13.2967 33.4736 14.1074 32.4585C14.8715 31.5019 15.2412 30.2483 15.3935 29.1204C15.6652 27.1157 15.186 25.2129 14.6559 23.4878C14.5421 23.1174 14.427 22.7572 14.3142 22.4048C13.8817 21.0524 13.4855 19.8133 13.3411 18.5416L13.3403 18.5343L13.3393 18.527C12.9182 15.2307 13.6205 11.8889 15.3362 9.03069C16.8512 6.5798 18.7794 4.20755 20.9559 2.51279Z" fill="#EC6A33" stroke="#181818" stroke-width="2.08492" stroke-miterlimit="10"/>
</svg>
