<svg width="25" height="25" viewBox="0 0 25 25" fill="none" xmlns="http://www.w3.org/2000/svg">
<circle cx="12.5" cy="12.5" r="12.5" fill="#181818"/>
<path d="M17.6272 16.702V13.0186C17.6272 11.2083 17.2375 9.82547 15.1255 9.82547C14.1072 9.82547 13.4284 10.3786 13.1518 10.9066H13.1266V9.9889H11.1278V16.702H13.2146V13.3706C13.2146 12.4906 13.3781 11.6483 14.4592 11.6483C15.5278 11.6483 15.5404 12.6415 15.5404 13.4209V16.6895H17.6272V16.702Z" fill="white"/>
<path d="M7.7335 9.98891H9.82035V16.7021H7.7335V9.98891Z" fill="white"/>
<path d="M8.77692 6.6449C8.11064 6.6449 7.57007 7.18547 7.57007 7.85175C7.57007 8.51804 8.11064 9.07118 8.77692 9.07118C9.44321 9.07118 9.98378 8.51804 9.98378 7.85175C9.98378 7.18547 9.44321 6.6449 8.77692 6.6449Z" fill="white"/>
</svg>
